<?xml version="1.0" standalone="no"?>
<!DOCTYPE svg PUBLIC "-//W3C//DTD SVG 20010904//EN"
 "http://www.w3.org/TR/2001/REC-SVG-20010904/DTD/svg10.dtd">
<svg version="1.0" xmlns="http://www.w3.org/2000/svg"
 width="400.000000pt" height="400.000000pt" viewBox="0 0 400.000000 400.000000"
 preserveAspectRatio="xMidYMid meet">
<metadata>
Created by potrace 1.14, written by Peter Selinger 2001-2017
</metadata>
<g transform="translate(0.000000,400.000000) scale(0.100000,-0.100000)"
fill="#000000" stroke="none">
<path d="M1828 3995 c-1 -1 -28 -5 -58 -8 -30 -4 -93 -14 -140 -23 -47 -9 -96
-18 -109 -21 -136 -25 -445 -159 -598 -258 -190 -124 -372 -288 -483 -434 -14
-18 -35 -45 -46 -59 -52 -65 -131 -197 -190 -317 -100 -204 -161 -410 -191
-650 -12 -95 -8 -411 6 -505 72 -463 280 -864 610 -1174 29 -28 59 -56 65 -62
37 -36 208 -158 287 -204 143 -85 400 -194 502 -214 12 -2 45 -10 72 -16 147
-34 252 -45 445 -45 203 0 231 3 470 50 44 8 192 56 270 87 274 108 541 295
745 520 257 286 425 636 490 1023 24 145 27 458 6 595 -63 401 -233 767 -491
1054 -203 226 -477 417 -750 524 -79 31 -193 70 -226 77 -135 29 -218 45 -259
50 -52 7 -421 16 -427 10z"/>
</g>
</svg>
