<svg width="1920" height="1080" viewBox="0 0 1920 1080" fill="none" xmlns="http://www.w3.org/2000/svg">
<mask id="path-1-inside-1" fill="white">
<path d="M1619.68 596.46C1609.88 593.285 1596.34 595.381 1579.72 602.652C1547.05 616.959 1506.54 650.365 1480.57 684.337C1474.9 691.762 1472.48 695.402 1467.58 703.899C1462.59 712.537 1460.9 716.001 1458.56 722.453C1451.54 741.968 1454.08 756.806 1466.05 766.3C1471.75 770.816 1478.6 773.167 1486.7 773.407C1494.4 773.636 1501.57 772.551 1512.56 769.485C1522.19 766.801 1528.93 764.336 1546.86 756.912C1552.62 754.51 1559.01 751.938 1561.07 751.206L1564.83 749.819L1622.83 783.309L1680.84 816.798L1681.52 820.745C1681.91 822.893 1682.94 830.255 1683.86 837.11C1686.52 857.339 1687.84 864.425 1690.8 875.101C1693.33 884.115 1695.52 889.593 1698.91 895.326C1703.34 902.794 1708.91 907.803 1715.95 910.58C1719.25 911.889 1722.2 912.554 1725.53 912.74C1746.17 913.963 1766.84 891.027 1782.7 849.334C1795.46 815.793 1802.76 774.282 1801.65 741.828C1801.28 731.356 1800.11 722.973 1797.91 714.588C1795.28 704.701 1792.13 698.506 1787.15 693.399C1785.6 691.78 1785.48 691.712 1765.47 680.065C1745.94 668.69 1745.31 668.36 1743.54 667.936C1741.18 667.392 1737.18 667.568 1730.31 668.512C1724.13 669.352 1720.93 669.514 1718.73 669.126C1717.34 668.86 1716.03 668.134 1696 656.572C1675.98 645.009 1674.69 644.237 1673.77 643.168C1672.33 641.458 1670.87 638.6 1668.51 632.831C1665.9 626.449 1664.06 622.895 1662.43 621.138C1661.22 619.845 1660.51 619.399 1641.55 608.487C1623.53 598.082 1621.76 597.121 1619.68 596.46ZM1761.09 717.244C1763.22 719.264 1764.29 722.429 1763.75 725.326C1763.47 726.897 1762.03 729.399 1760.81 730.424C1755.69 734.769 1747.8 732.198 1746.34 725.726C1745.77 723.189 1746.02 721.665 1747.39 719.282C1748.28 717.748 1748.82 717.084 1749.67 716.476C1751.89 714.924 1754.79 714.426 1757.45 715.147C1759.09 715.586 1759.65 715.913 1761.09 717.244ZM1607.6 644.081L1602.77 652.459L1611.14 657.294L1619.51 662.129L1616.25 667.671L1612.98 673.177L1604.69 668.359L1596.36 663.552L1591.45 671.95L1586.5 680.358L1580.87 677.201L1575.23 674.007L1580.13 665.511L1585.04 657.015L1576.66 652.18L1568.29 647.345L1571.49 641.799L1574.69 636.253L1583.07 641.087L1591.44 645.922L1596.28 637.544L1601.12 629.165L1606.78 632.434L1612.44 635.703L1607.6 644.081ZM1731.31 725.23C1733.52 727.291 1734.59 730.834 1733.88 733.697C1733.46 735.405 1731.64 738.068 1730.24 739.021C1728.65 740.086 1726.26 740.688 1724.28 740.521C1721.89 740.304 1719.26 738.755 1717.91 736.783C1716.79 735.128 1716.15 732.648 1716.34 730.682C1716.51 728.702 1718.31 725.587 1719.9 724.461C1722.17 722.876 1725.26 722.365 1727.91 723.171C1729.39 723.613 1729.99 723.99 1731.31 725.23ZM1770.68 748.778C1772.59 751.638 1772.69 755.002 1770.93 758.046C1770.05 759.58 1769.65 759.984 1768.22 760.948C1765.23 762.967 1761.93 763.074 1758.84 761.29C1755.74 759.469 1754.2 756.569 1754.44 752.995C1754.56 751.268 1754.7 750.752 1755.6 749.194C1756.44 747.791 1756.93 747.222 1758.02 746.47C1762.28 743.453 1767.77 744.453 1770.68 748.778ZM1740.68 756.884C1741.77 758.487 1742.35 760.866 1742.18 762.846C1741.99 765.031 1740.43 767.844 1738.71 769.083C1737.1 770.233 1734.65 770.929 1732.64 770.771C1731.18 770.684 1730.65 770.506 1728.93 769.512C1727.21 768.518 1726.79 768.151 1725.96 766.917C1723.14 762.707 1724.43 756.815 1728.78 754.292C1730.26 753.416 1733.23 752.8 1734.74 753.073C1736.58 753.379 1739.66 755.382 1740.68 756.884ZM1616.83 725.877C1621.82 730.363 1623.88 737.97 1621.82 744.525C1620.53 748.622 1617.38 752.438 1613.55 754.602C1611.11 755.994 1607.18 756.931 1604.33 756.797C1601.06 756.638 1598.83 756.017 1596.1 754.437C1590.05 750.974 1586.67 744.619 1587.2 737.716C1587.45 734.557 1587.99 732.856 1589.59 730.132C1593.12 724.08 1599.29 720.848 1606.31 721.341C1610.15 721.607 1613.87 723.222 1616.83 725.877ZM1682.13 763.575C1684.96 766.125 1687.18 770.298 1687.73 774.079C1688.33 778.266 1687.58 781.92 1685.37 785.743C1682.82 790.096 1679.27 792.703 1674.22 793.939C1669.58 795.065 1665.34 794.446 1661.2 792.025C1657.04 789.591 1654.23 785.956 1653.03 781.392C1651.82 776.79 1652.22 772.834 1654.29 768.746C1655.81 765.748 1657.6 763.731 1660.46 761.827C1664.63 759.073 1670.72 758.217 1675.44 759.744C1677.7 760.453 1680.39 762.006 1682.13 763.575Z"/>
</mask>
<path d="M1619.68 596.46C1609.88 593.285 1596.34 595.381 1579.72 602.652C1547.05 616.959 1506.54 650.365 1480.57 684.337C1474.9 691.762 1472.48 695.402 1467.58 703.899C1462.59 712.537 1460.9 716.001 1458.56 722.453C1451.54 741.968 1454.08 756.806 1466.05 766.3C1471.75 770.816 1478.6 773.167 1486.7 773.407C1494.4 773.636 1501.57 772.551 1512.56 769.485C1522.19 766.801 1528.93 764.336 1546.86 756.912C1552.62 754.51 1559.01 751.938 1561.07 751.206L1564.83 749.819L1622.83 783.309L1680.84 816.798L1681.52 820.745C1681.91 822.893 1682.94 830.255 1683.86 837.11C1686.52 857.339 1687.84 864.425 1690.8 875.101C1693.33 884.115 1695.52 889.593 1698.91 895.326C1703.34 902.794 1708.91 907.803 1715.95 910.58C1719.25 911.889 1722.2 912.554 1725.53 912.74C1746.17 913.963 1766.84 891.027 1782.7 849.334C1795.46 815.793 1802.76 774.282 1801.65 741.828C1801.28 731.356 1800.11 722.973 1797.91 714.588C1795.28 704.701 1792.13 698.506 1787.15 693.399C1785.6 691.78 1785.48 691.712 1765.47 680.065C1745.94 668.69 1745.31 668.36 1743.54 667.936C1741.18 667.392 1737.18 667.568 1730.31 668.512C1724.13 669.352 1720.93 669.514 1718.73 669.126C1717.34 668.86 1716.03 668.134 1696 656.572C1675.98 645.009 1674.69 644.237 1673.77 643.168C1672.33 641.458 1670.87 638.6 1668.51 632.831C1665.9 626.449 1664.06 622.895 1662.43 621.138C1661.22 619.845 1660.51 619.399 1641.55 608.487C1623.53 598.082 1621.76 597.121 1619.68 596.46ZM1761.09 717.244C1763.22 719.264 1764.29 722.429 1763.75 725.326C1763.47 726.897 1762.03 729.399 1760.81 730.424C1755.69 734.769 1747.8 732.198 1746.34 725.726C1745.77 723.189 1746.02 721.665 1747.39 719.282C1748.28 717.748 1748.82 717.084 1749.67 716.476C1751.89 714.924 1754.79 714.426 1757.45 715.147C1759.09 715.586 1759.65 715.913 1761.09 717.244ZM1607.6 644.081L1602.77 652.459L1611.14 657.294L1619.51 662.129L1616.25 667.671L1612.98 673.177L1604.69 668.359L1596.36 663.552L1591.45 671.95L1586.5 680.358L1580.87 677.201L1575.23 674.007L1580.13 665.511L1585.04 657.015L1576.66 652.18L1568.29 647.345L1571.49 641.799L1574.69 636.253L1583.07 641.087L1591.44 645.922L1596.28 637.544L1601.12 629.165L1606.78 632.434L1612.44 635.703L1607.6 644.081ZM1731.31 725.23C1733.52 727.291 1734.59 730.834 1733.88 733.697C1733.46 735.405 1731.64 738.068 1730.24 739.021C1728.65 740.086 1726.26 740.688 1724.28 740.521C1721.89 740.304 1719.26 738.755 1717.91 736.783C1716.79 735.128 1716.15 732.648 1716.34 730.682C1716.51 728.702 1718.31 725.587 1719.9 724.461C1722.17 722.876 1725.26 722.365 1727.91 723.171C1729.39 723.613 1729.99 723.99 1731.31 725.23ZM1770.68 748.778C1772.59 751.638 1772.69 755.002 1770.93 758.046C1770.05 759.58 1769.65 759.984 1768.22 760.948C1765.23 762.967 1761.93 763.074 1758.84 761.29C1755.74 759.469 1754.2 756.569 1754.44 752.995C1754.56 751.268 1754.7 750.752 1755.6 749.194C1756.44 747.791 1756.93 747.222 1758.02 746.47C1762.28 743.453 1767.77 744.453 1770.68 748.778ZM1740.68 756.884C1741.77 758.487 1742.35 760.866 1742.18 762.846C1741.99 765.031 1740.43 767.844 1738.71 769.083C1737.1 770.233 1734.65 770.929 1732.64 770.771C1731.18 770.684 1730.65 770.506 1728.93 769.512C1727.21 768.518 1726.79 768.151 1725.96 766.917C1723.14 762.707 1724.43 756.815 1728.78 754.292C1730.26 753.416 1733.23 752.8 1734.74 753.073C1736.58 753.379 1739.66 755.382 1740.68 756.884ZM1616.83 725.877C1621.82 730.363 1623.88 737.97 1621.82 744.525C1620.53 748.622 1617.38 752.438 1613.55 754.602C1611.11 755.994 1607.18 756.931 1604.33 756.797C1601.06 756.638 1598.83 756.017 1596.1 754.437C1590.05 750.974 1586.67 744.619 1587.2 737.716C1587.45 734.557 1587.99 732.856 1589.59 730.132C1593.12 724.08 1599.29 720.848 1606.31 721.341C1610.15 721.607 1613.87 723.222 1616.83 725.877ZM1682.13 763.575C1684.96 766.125 1687.18 770.298 1687.73 774.079C1688.33 778.266 1687.58 781.92 1685.37 785.743C1682.82 790.096 1679.27 792.703 1674.22 793.939C1669.58 795.065 1665.34 794.446 1661.2 792.025C1657.04 789.591 1654.23 785.956 1653.03 781.392C1651.82 776.79 1652.22 772.834 1654.29 768.746C1655.81 765.748 1657.6 763.731 1660.46 761.827C1664.63 759.073 1670.72 758.217 1675.44 759.744C1677.7 760.453 1680.39 762.006 1682.13 763.575Z" stroke="#C8C8C8" stroke-width="6" mask="url(#path-1-inside-1)"/>
<path opacity="0.178525" fill-rule="evenodd" clip-rule="evenodd" d="M314.93 768.16L248.385 747.482L197.299 794.855L212.76 862.906L279.306 883.583L330.391 836.21L314.93 768.16Z" fill="#C8C8C8"/>
<path opacity="0.222075" fill-rule="evenodd" clip-rule="evenodd" d="M450.598 735.315L384.052 714.637L332.966 762.011L348.427 830.062L414.973 850.739L466.058 803.366L450.598 735.315Z" fill="#C8C8C8"/>
<path opacity="0.222075" fill-rule="evenodd" clip-rule="evenodd" d="M221.316 667.197L154.77 646.519L103.685 693.893L119.145 761.943L185.691 782.62L236.776 735.247L221.316 667.197Z" fill="#C8C8C8"/>
<path opacity="0.331706" fill-rule="evenodd" clip-rule="evenodd" d="M291.628 617.933L240.484 665.234L255.891 733.105L322.441 753.674L373.585 706.372L358.178 638.502L291.628 617.933Z" fill="#C8C8C8"/>
<path opacity="0.275019" fill-rule="evenodd" clip-rule="evenodd" d="M166.308 929.631L181.714 997.501L248.264 1018.07L299.408 970.768L284.002 902.898L217.452 882.329L166.308 929.631Z" fill="#C8C8C8"/>
<path opacity="0.767625" fill-rule="evenodd" clip-rule="evenodd" d="M295.397 892.615L310.803 960.486L377.353 981.054L428.497 933.752L413.091 865.882L346.54 845.313L295.397 892.615Z" fill="#C8C8C8"/>
<path d="M466.254 358.843L464.49 359.862M461.018 353.848L462.782 352.83M460.298 352.601L462.062 351.583M455.088 339.502L457.88 337.89M242.889 382.344L228.265 374.667L226.335 371.324L227.365 370.729L227.784 358.727M242.889 382.344L260.255 405.634L310.743 376.484M242.889 382.344L219.128 341.189M242.889 382.344L243.279 382.087L243.76 381.771L248.357 378.746M210.675 346.069L227.634 363.028M220.377 340.468L213.589 328.71M224.787 337.922L262.974 404.064M273.262 398.124L228.287 320.224L198.891 337.195M292.59 386.965L293.439 388.434L279.77 396.326M310.743 376.484L265.768 298.584L282.817 288.741M310.743 376.484L406.721 321.071L361.746 243.171L344.696 253.015M294.061 386.116L294.909 387.585L318.426 374.008L317.578 372.538M305.084 379.752L305.932 381.221M306.554 378.903L307.403 380.372M445.723 265.238L445.535 265.333L444.981 265.61L442.897 266.656L441.468 267.37L439.872 268.174M445.723 265.238L446.385 248.735L444.455 245.392L443.426 245.986L432.822 240.348M445.723 265.238L421.962 224.083M445.723 265.238L459.438 297.102L385.049 340.05L382.249 335.2M306.646 325.434L280.965 285.89M306.646 325.434L287.614 336.423M306.646 325.434L321.303 348.004C322.04 349.139 323.539 349.499 324.711 348.822L375.781 319.337C376.954 318.66 377.391 317.184 376.776 315.976L364.559 291.998M235.396 203.042L221.819 179.525L224.758 177.828L214.575 160.19L211.636 161.887L207.787 155.221M383.592 281.01L364.559 291.998M364.559 291.998L343.152 249.986M429.032 249.398L418.743 255.338M247.804 354.029L237.516 359.969M243.307 346.239L244.997 345.263M278.803 325.746L280.788 324.6M376.766 269.187L378.75 268.041M412.555 248.524L414.246 247.548M235.075 331.982L205.68 348.954L197.194 334.255L204.763 329.885M406.014 233.29L435.41 216.318L426.925 201.62L419.355 205.991M255.165 191.628L227.162 143.125M227.162 143.125L229.293 141.894M227.162 143.125C226.475 141.936 226.856 140.417 228.021 139.691M433.289 212.644L441.67 207.805L436.579 198.986L428.197 203.825M203.558 345.279L195.176 350.118L190.085 341.3L198.467 336.46M428.622 204.56L399.226 221.532L444.201 299.432L454.49 293.492L416.303 227.35M274.419 180.512L246.416 132.008M246.416 132.008L244.285 133.239M246.416 132.008C245.729 130.819 244.223 130.389 243.013 131.036M204.763 329.885L213.498 230.054M204.763 329.885L419.355 205.991M419.355 205.991L367.884 156.546C360.256 149.218 348.703 147.814 339.543 153.103M420.197 376.828L405.414 351.223L396.928 336.524L395.485 334.025M420.197 376.828L427.546 372.585M420.197 376.828L424.337 383.999L431.686 379.756L427.546 372.585M427.546 372.585L412.763 346.98L404.277 332.281L402.834 329.782M316.824 166.221L315.975 164.75L335.245 153.625L336.094 155.095M316.842 166.21L315.993 164.74M321.966 163.252L321.117 161.782M330.133 158.537L329.284 157.066M332.959 156.905L332.11 155.435M333.75 156.449L332.901 154.978M334.094 156.25L333.245 154.78M334.464 156.036L333.615 154.566M334.925 155.77L334.076 154.3M436.051 310.604L437.494 313.103L445.98 327.802L464.739 360.292L466.503 359.274L447.744 326.783L439.258 312.085L437.815 309.586M438.755 309.043L440.198 311.542L448.684 326.241L458.325 342.939M458.325 342.939L458.495 342.574M458.325 342.939C457.974 343.691 458.012 344.569 458.427 345.288M439.041 308.878L440.484 311.377L448.97 326.076L458.495 342.574M458.495 342.574C459.08 341.32 459.016 339.859 458.324 338.659L450.536 325.171L442.05 310.473L440.678 308.096M420.712 224.804L413.924 213.046M452.039 301.374L449.81 296.194M429.812 219.551L436.305 242.201M349.107 397.449L405.695 364.778M349.107 397.449L364.382 406.268M349.107 397.449L343.167 387.161L334.681 372.462C332.338 368.403 327.148 367.013 323.089 369.356M405.695 364.778L399.755 354.49L391.269 339.791C390.773 338.932 390.431 337.992 390.26 337.015M405.695 364.778L405.695 382.416M207.6 297.461L207.354 297.035L207.653 296.862M364.354 385.412L365.457 385.621L366.543 385.814L367.613 385.993L368.666 386.157L351.27 356.026M364.354 385.412L365.087 385.833L365.808 386.237L366.515 386.625L367.21 386.997M364.354 385.412L347.085 355.502M365.591 386.116L366.378 387.478L383.91 400.872L391.259 396.629L388.425 374.749L387.638 373.387M351.27 356.026L368.74 345.94M351.27 356.026L350.826 355.503L350.272 355.141L349.585 354.936L348.835 354.897L348.095 355.038M368.74 345.94L386.136 376.07L386.521 375.074L386.901 374.058L387.277 373.021L387.647 371.964M368.74 345.94L368.509 345.294L368.472 344.634L368.638 343.935L368.98 343.267L369.472 342.696L370.124 342.201M370.378 342.054L387.647 371.964M387.647 371.964L387.645 372.81L387.635 373.637L387.617 374.444L387.592 375.23M349.357 354.191L349.19 351.859L349.178 349.627L349.303 347.483L349.612 345.461L350.133 343.555L350.9 341.859L351.97 340.44L353.299 339.368L354.892 338.753L356.656 338.536L358.508 338.719L360.42 339.221L362.325 339.965L364.244 340.928L366.17 342.055L368.108 343.365M222.213 173.419L219.273 175.116L213.333 164.827L216.272 163.13M440.387 308.1C447.718 308.31 454.541 304.371 458.025 297.917M274.787 407.042C279.115 404.543 281.04 399.31 279.363 394.602L274.787 407.042ZM274.787 407.042C270.459 409.541 264.963 408.592 261.724 404.785M236.1 370.585L230.755 363.873L218.026 341.825M233 324.483L250.004 353.935L270.066 381.547L293.432 368.057C297.491 365.713 298.882 360.524 296.538 356.465L288.052 341.766M233 324.483L228.28 316.308M233 324.483L266.805 304.966M207.787 155.221L207.786 148.431L260.699 117.882L266.579 121.277M207.787 155.221L227.664 143.745M266.805 304.966L288.052 341.766M266.805 304.966L262.085 296.79M288.052 341.766L255.019 360.838M421.032 264.99L387.999 284.062M387.999 284.062L366.752 247.261M387.999 284.062L396.485 298.76C398.829 302.819 404.018 304.21 408.077 301.866L431.445 288.375L417.562 257.195L400.558 227.744M257.296 190.398L226.747 137.485M272.288 181.742L241.739 128.829M294.188 169.098L266.579 121.277M266.579 121.277L246.702 132.753M366.752 247.261L400.558 227.744M366.752 247.261L362.032 239.086M400.558 227.744L395.838 219.568M423.064 223.446L435.793 245.494L438.934 253.479M229.687 142.577L244.679 133.921M367.776 406.268L380.987 398.641M390.786 392.983L403.997 385.356C405.048 384.749 405.694 383.629 405.695 382.416M364.382 406.268L379.527 397.524M364.382 406.268C365.432 406.874 366.726 406.874 367.777 406.268M390.55 391.16L405.695 382.416M220.588 299.205L218.037 294.786M220.588 299.205L219.412 299.555L218.268 299.91L217.16 300.267L216.091 300.625L215.068 300.982L214.094 301.338L213.172 301.689L212.303 302.036L211.491 302.377L210.739 302.709L210.047 303.034L209.42 303.349L208.857 303.653L208.362 303.945L207.936 304.225L207.581 304.491L207.3 304.741L207.093 304.975L206.961 305.192L206.906 305.39M220.588 299.205L218.602 321.895M220.588 299.205L257.746 277.751L226.25 218.514M230.043 216.324L229.195 206.622L300.391 165.517L308.367 171.103M232.708 214.785L231.859 205.084M328.723 346.506L328.41 346.599L328.025 346.561L327.601 346.378L327.163 346.057L326.73 345.613L326.348 345.064L321.29 347.984M376.766 315.956L371.708 318.876L371.991 319.481L372.16 320.078L372.218 320.618L372.166 321.076L372.006 321.429L371.77 321.653M286.023 282.97L326.288 344.972L371.658 318.778L338.095 252.906M391.742 200.388L392.744 199.653L393.744 198.939L394.735 198.253L395.715 197.597L396.676 196.975L397.616 196.388L398.528 195.842L399.41 195.337L400.255 194.877L401.061 194.463L401.822 194.098L402.536 193.785L403.198 193.523L403.806 193.316L404.355 193.164L404.842 193.069L405.264 193.032L405.619 193.053L405.904 193.133L406.115 193.271C403.391 190.655 399.265 190.153 395.993 192.042M391.742 200.388L347.713 225.808L312.161 168.913M391.742 200.388L389.191 195.97M391.742 200.388L405.75 213.845M255.35 273.243L211.117 298.781C208.719 300.166 207.148 302.633 206.907 305.391M345.008 221.479L395.994 192.043M305.704 172.641L297.726 167.056M228.647 223.021L314.867 173.242M339.543 153.104L217.708 223.445C215.31 224.83 213.739 227.297 213.498 230.055M423.964 383.353L431.313 379.11" stroke="#C8C8C8" stroke-width="2" stroke-miterlimit="2" stroke-linecap="round" stroke-linejoin="round"/>
</svg>
