<svg width="165" height="186" viewBox="0 0 165 186" fill="none" xmlns="http://www.w3.org/2000/svg">
<path d="M52.1531 44.3074H63.0993V55.2536H52.1531V44.3074ZM59.373 94.1971H69.7014V104.527H59.373V94.1971ZM74.949 60.5292C75.8596 57.925 77.3318 56.1277 79.3659 56.1277H165.001V15.2693H68.1871C61.6354 15.2693 55.445 16.8144 49.9565 19.5559V42.01C49.9565 42.0661 49.9117 42.1109 49.8557 42.1109H29.7984C28.8388 44.7389 28.1426 47.4943 27.7391 50.3436H39.3171V76.856H27.3301V79.7684C27.3301 81.2155 27.4071 82.6457 27.5528 84.0536H31.2651V97.2804C33.2865 101.536 36.0209 105.388 39.3171 108.679V98.1223H54.2179V113.023H44.4456C51.1374 117.808 59.3324 120.627 68.1871 120.627H112.965C120.336 120.627 120.336 144.268 112.965 144.268H27.3301V185.126H124.142C135.425 185.126 145.64 180.554 153.034 173.159C160.427 165.765 165.001 155.551 165.001 144.268V120.627C165.001 98.0606 146.709 79.7684 124.142 79.7684H77.2016V84.0116H54.428V60.5292H74.949Z" fill="white"/>
<path d="M0 49.7805H11.9016V37.8789H0V49.7805Z" fill="white"/>
<path d="M18.7009 0H7.97178C7.90215 0 7.8457 0.0564453 7.8457 0.126075V10.8551C7.8457 10.9248 7.90215 10.9812 7.97178 10.9812H18.7009C18.7705 10.9812 18.8269 10.9248 18.8269 10.8551V0.126075C18.8269 0.0564453 18.7705 0 18.7009 0Z" fill="white"/>
<path d="M18.8262 35.3434H43.1883V10.9799H18.8262V35.3434Z" fill="white"/>
<path d="M12.5977 70.7161H32.9687V50.3436H12.5977V70.7161Z" fill="white"/>
<path d="M19.4609 97.5198H32.9693V84.0115H19.4609V97.5198Z" fill="white"/>
<path d="M39.0078 113.328H47.8093V104.527H39.0078V113.328Z" fill="white"/>
</svg>
